<svg class="img-fluid" id="outputsvg" xmlns="http://www.w3.org/2000/svg" style="transform: matrix(1.44804, 0, 0, 1.44804, 0, 0); transform-origin: 50% 50%; cursor: move; transition: none;" width="512" height="512" viewBox="0 0 5120 5120"><g id="l7I6Ex8hLpAsnUmNVmkSzh4" fill="rgb(0,0,0)" style="transform: none;"><g style="transform: none;"><path id="p1E38pXdPa" d="M3530 4339 c-49 -15 -97 -54 -119 -97 -10 -20 -33 -82 -51 -137 -44 -134 -61 -165 -115 -213 -37 -32 -69 -48 -163 -78 -64 -20 -133 -45 -152 -55 -95 -47 -135 -159 -91 -254 32 -69 66 -91 211 -140 74 -25 151 -56 172 -70 55 -36 93 -102 134 -230 48 -150 71 -187 136 -219 62 -31 108 -33 166 -6 71 32 97 70 142 210 45 141 81 205 138 242 20 14 89 42 152 63 145 48 183 67 214 107 52 70 55 157 6 236 -28 46 -67 66 -215 114 -123 40 -133 45 -186 97 -52 53 -58 63 -93 176 -21 66 -49 139 -62 162 -42 74 -144 115 -224 92z"></path><path id="p4g7u5JmB" d="M1957 3306 c-54 -20 -103 -60 -131 -109 -13 -23 -52 -130 -86 -237 -34 -107 -78 -226 -98 -265 -44 -84 -153 -197 -231 -239 -30 -16 -153 -62 -272 -101 -120 -39 -233 -82 -251 -94 -140 -97 -152 -292 -26 -408 42 -38 65 -48 255 -108 251 -81 325 -117 413 -205 88 -88 124 -162 205 -413 75 -234 96 -271 184 -321 77 -43 162 -43 241 -1 88 48 110 87 190 333 77 241 109 304 198 395 89 91 149 121 400 203 124 41 243 86 263 100 128 88 145 278 36 392 -45 48 -76 61 -307 135 -229 74 -299 110 -384 196 -86 88 -120 154 -193 381 -36 113 -72 217 -79 232 -61 119 -204 177 -327 134z"></path></g></g></svg>